<svg width="409" height="64" viewBox="0 0 409 64" fill="none" xmlns="http://www.w3.org/2000/svg">
<path d="M20.0271 60C35.4761 60 48 47.464 48 32C48 16.536 35.4761 4 20.0271 4C14.1409 4 8.67934 5.81983 4.17331 8.92808C3.78964 9.19273 4.09958 9.79043 4.5525 9.68094C6.28552 9.26198 8.09531 9.04 9.95691 9.04C22.6251 9.04 32.8947 19.3195 32.8947 32C32.8947 44.6805 22.6251 54.96 9.95691 54.96C8.09532 54.96 6.28552 54.738 4.5525 54.3191C4.09958 54.2096 3.78964 54.8073 4.17331 55.0719C8.67934 58.1802 14.1409 60 20.0271 60Z" fill="#D6FF3D"/>
<path d="M68 36.8239C68 34.1359 68.528 31.7839 69.584 29.7679C70.672 27.7199 72.16 26.1519 74.048 25.0639C75.968 23.9439 78.128 23.3839 80.528 23.3839C83.024 23.3839 85.168 23.9599 86.96 25.1119C88.784 26.2639 90.096 27.7359 90.896 29.5279V23.7679H94.256V49.9759H90.896V44.1679C90.064 45.9599 88.736 47.4479 86.912 48.6319C85.12 49.7839 82.976 50.3599 80.48 50.3599C78.112 50.3599 75.968 49.7999 74.048 48.6799C72.16 47.5599 70.672 45.9759 69.584 43.9279C68.528 41.8799 68 39.5119 68 36.8239ZM90.896 36.8719C90.896 34.7599 90.464 32.9039 89.6 31.3039C88.736 29.7039 87.552 28.4719 86.048 27.6079C84.576 26.7439 82.944 26.3119 81.152 26.3119C79.296 26.3119 77.632 26.7279 76.16 27.5599C74.688 28.3919 73.52 29.6079 72.656 31.2079C71.824 32.7759 71.408 34.6479 71.408 36.8239C71.408 38.9679 71.824 40.8559 72.656 42.4879C73.52 44.0879 74.688 45.3199 76.16 46.1839C77.632 47.0159 79.296 47.4319 81.152 47.4319C82.944 47.4319 84.576 46.9999 86.048 46.1359C87.552 45.2719 88.736 44.0399 89.6 42.4399C90.464 40.8399 90.896 38.9839 90.896 36.8719Z" fill="#f3f1ea"/>
<path d="M121.847 26.5999H115.751V49.9759H112.391V26.5999H108.743V23.7679H112.391V21.9439C112.391 19.0959 113.111 16.9999 114.551 15.6559C116.023 14.3119 118.391 13.6399 121.655 13.6399V16.5199C119.479 16.5199 117.943 16.9359 117.047 17.7679C116.183 18.5999 115.751 19.9919 115.751 21.9439V23.7679H121.847V26.5999Z" fill="#f3f1ea"/>
<path d="M141.104 26.5999V42.8719C141.104 44.4719 141.408 45.5759 142.016 46.1839C142.624 46.7919 143.696 47.0959 145.232 47.0959H148.304V49.9759H144.704C142.336 49.9759 140.576 49.4319 139.424 48.3439C138.272 47.2239 137.696 45.3999 137.696 42.8719V26.5999H134.048V23.7679H137.696V17.1919H141.104V23.7679H148.304V26.5999H141.104Z" fill="#f3f1ea"/>
<path d="M187.157 35.5279C187.157 36.6799 187.125 37.5599 187.061 38.1679H165.317C165.413 40.1519 165.893 41.8479 166.757 43.2559C167.621 44.6639 168.757 45.7359 170.165 46.4719C171.573 47.1759 173.109 47.5279 174.773 47.5279C176.949 47.5279 178.773 46.9999 180.245 45.9439C181.749 44.8879 182.741 43.4639 183.221 41.6719H186.773C186.133 44.2319 184.757 46.3279 182.645 47.9599C180.565 49.5599 177.941 50.3599 174.773 50.3599C172.309 50.3599 170.101 49.8159 168.149 48.7279C166.197 47.6079 164.661 46.0399 163.541 44.0239C162.453 41.9759 161.909 39.5919 161.909 36.8719C161.909 34.1519 162.453 31.7679 163.541 29.7199C164.629 27.6719 166.149 26.1039 168.101 25.0159C170.053 23.9279 172.277 23.3839 174.773 23.3839C177.269 23.3839 179.445 23.9279 181.301 25.0159C183.189 26.1039 184.629 27.5759 185.621 29.4319C186.645 31.2559 187.157 33.2879 187.157 35.5279ZM183.749 35.4319C183.781 33.4799 183.381 31.8159 182.549 30.4399C181.749 29.0639 180.645 28.0239 179.237 27.3199C177.829 26.6159 176.293 26.2639 174.629 26.2639C172.133 26.2639 170.005 27.0639 168.245 28.6639C166.485 30.2639 165.509 32.5199 165.317 35.4319H183.749Z" fill="#f3f1ea"/>
<path d="M206.265 28.4239C207.001 26.7919 208.121 25.5279 209.625 24.6319C211.161 23.7359 213.033 23.2879 215.241 23.2879V26.7919H214.329C211.897 26.7919 209.945 27.4479 208.473 28.7599C207.001 30.0719 206.265 32.2639 206.265 35.3359V49.9759H202.905V23.7679H206.265V28.4239Z" fill="#f3f1ea"/>
<path d="M241.367 50.3599C238.903 50.3599 236.679 49.8159 234.695 48.7279C232.743 47.6079 231.191 46.0399 230.039 44.0239C228.919 41.9759 228.359 39.5919 228.359 36.8719C228.359 34.1519 228.935 31.7839 230.087 29.7679C231.239 27.7199 232.807 26.1519 234.791 25.0639C236.775 23.9439 238.999 23.3839 241.463 23.3839C243.927 23.3839 246.151 23.9439 248.135 25.0639C250.151 26.1519 251.719 27.7199 252.839 29.7679C253.991 31.7839 254.567 34.1519 254.567 36.8719C254.567 39.5599 253.991 41.9279 252.839 43.9759C251.687 46.0239 250.103 47.6079 248.087 48.7279C246.071 49.8159 243.831 50.3599 241.367 50.3599ZM241.367 47.4319C243.095 47.4319 244.695 47.0479 246.167 46.2799C247.639 45.4799 248.823 44.2959 249.719 42.7279C250.647 41.1279 251.111 39.1759 251.111 36.8719C251.111 34.5679 250.663 32.6319 249.767 31.0639C248.871 29.4639 247.687 28.2799 246.215 27.5119C244.743 26.7119 243.143 26.3119 241.415 26.3119C239.687 26.3119 238.087 26.7119 236.615 27.5119C235.143 28.2799 233.959 29.4639 233.063 31.0639C232.199 32.6319 231.767 34.5679 231.767 36.8719C231.767 39.1759 232.199 41.1279 233.063 42.7279C233.959 44.2959 235.127 45.4799 236.567 46.2799C238.039 47.0479 239.639 47.4319 241.367 47.4319Z" fill="#f3f1ea"/>
<path d="M280.612 26.5999H274.516V49.9759H271.156V26.5999H267.508V23.7679H271.156V21.9439C271.156 19.0959 271.876 16.9999 273.316 15.6559C274.788 14.3119 277.156 13.6399 280.42 13.6399V16.5199C278.244 16.5199 276.708 16.9359 275.812 17.7679C274.948 18.5999 274.516 19.9919 274.516 21.9439V23.7679H280.612V26.5999Z" fill="#f3f1ea"/>
<path d="M305.822 26.5999H299.726V49.9759H296.366V26.5999H292.718V23.7679H296.366V21.9439C296.366 19.0959 297.086 16.9999 298.526 15.6559C299.998 14.3119 302.366 13.6399 305.63 13.6399V16.5199C303.454 16.5199 301.918 16.9359 301.022 17.7679C300.158 18.5999 299.726 19.9919 299.726 21.9439V23.7679H305.822V26.5999Z" fill="#f3f1ea"/>
<path d="M322.391 18.8239C321.719 18.8239 321.143 18.5839 320.663 18.1039C320.183 17.6239 319.943 17.0319 319.943 16.3279C319.943 15.6239 320.183 15.0479 320.663 14.5999C321.143 14.1199 321.719 13.8799 322.391 13.8799C323.063 13.8799 323.639 14.1199 324.119 14.5999C324.599 15.0479 324.839 15.6239 324.839 16.3279C324.839 17.0319 324.599 17.6239 324.119 18.1039C323.639 18.5839 323.063 18.8239 322.391 18.8239ZM324.071 23.7679V49.9759H320.711V23.7679H324.071Z" fill="#f3f1ea"/>
<path d="M339.744 36.8719C339.744 34.1519 340.288 31.7839 341.376 29.7679C342.464 27.7199 343.968 26.1519 345.888 25.0639C347.808 23.9439 350 23.3839 352.464 23.3839C355.696 23.3839 358.352 24.1839 360.432 25.7839C362.544 27.3839 363.904 29.5599 364.512 32.3119H360.912C360.464 30.4239 359.488 28.9519 357.984 27.8959C356.512 26.8079 354.672 26.2639 352.464 26.2639C350.704 26.2639 349.12 26.6639 347.712 27.4639C346.304 28.2639 345.184 29.4639 344.352 31.0639C343.552 32.6319 343.152 34.5679 343.152 36.8719C343.152 39.1759 343.552 41.1279 344.352 42.7279C345.184 44.3279 346.304 45.5279 347.712 46.3279C349.12 47.1279 350.704 47.5279 352.464 47.5279C354.672 47.5279 356.512 46.9999 357.984 45.9439C359.488 44.8559 360.464 43.3519 360.912 41.4319H364.512C363.904 44.1199 362.544 46.2799 360.432 47.9119C358.32 49.5439 355.664 50.3599 352.464 50.3599C350 50.3599 347.808 49.8159 345.888 48.7279C343.968 47.6079 342.464 46.0399 341.376 44.0239C340.288 41.9759 339.744 39.5919 339.744 36.8719Z" fill="#f3f1ea"/>
<path d="M404.029 35.5279C404.029 36.6799 403.997 37.5599 403.933 38.1679H382.189C382.285 40.1519 382.765 41.8479 383.629 43.2559C384.493 44.6639 385.629 45.7359 387.037 46.4719C388.445 47.1759 389.981 47.5279 391.645 47.5279C393.821 47.5279 395.645 46.9999 397.117 45.9439C398.621 44.8879 399.613 43.4639 400.093 41.6719H403.645C403.005 44.2319 401.629 46.3279 399.517 47.9599C397.437 49.5599 394.813 50.3599 391.645 50.3599C389.181 50.3599 386.973 49.8159 385.021 48.7279C383.069 47.6079 381.533 46.0399 380.413 44.0239C379.325 41.9759 378.781 39.5919 378.781 36.8719C378.781 34.1519 379.325 31.7679 380.413 29.7199C381.501 27.6719 383.021 26.1039 384.973 25.0159C386.925 23.9279 389.149 23.3839 391.645 23.3839C394.141 23.3839 396.317 23.9279 398.173 25.0159C400.061 26.1039 401.501 27.5759 402.493 29.4319C403.517 31.2559 404.029 33.2879 404.029 35.5279ZM400.621 35.4319C400.653 33.4799 400.253 31.8159 399.421 30.4399C398.621 29.0639 397.517 28.0239 396.109 27.3199C394.701 26.6159 393.165 26.2639 391.501 26.2639C389.005 26.2639 386.877 27.0639 385.117 28.6639C383.357 30.2639 382.381 32.5199 382.189 35.4319H400.621Z" fill="#f3f1ea"/>
<path d="M68 36.8239C68 34.1359 68.528 31.7839 69.584 29.7679C70.672 27.7199 72.16 26.1519 74.048 25.0639C75.968 23.9439 78.128 23.3839 80.528 23.3839C83.024 23.3839 85.168 23.9599 86.96 25.1119C88.784 26.2639 90.096 27.7359 90.896 29.5279V23.7679H94.256V49.9759H90.896V44.1679C90.064 45.9599 88.736 47.4479 86.912 48.6319C85.12 49.7839 82.976 50.3599 80.48 50.3599C78.112 50.3599 75.968 49.7999 74.048 48.6799C72.16 47.5599 70.672 45.9759 69.584 43.9279C68.528 41.8799 68 39.5119 68 36.8239ZM90.896 36.8719C90.896 34.7599 90.464 32.9039 89.6 31.3039C88.736 29.7039 87.552 28.4719 86.048 27.6079C84.576 26.7439 82.944 26.3119 81.152 26.3119C79.296 26.3119 77.632 26.7279 76.16 27.5599C74.688 28.3919 73.52 29.6079 72.656 31.2079C71.824 32.7759 71.408 34.6479 71.408 36.8239C71.408 38.9679 71.824 40.8559 72.656 42.4879C73.52 44.0879 74.688 45.3199 76.16 46.1839C77.632 47.0159 79.296 47.4319 81.152 47.4319C82.944 47.4319 84.576 46.9999 86.048 46.1359C87.552 45.2719 88.736 44.0399 89.6 42.4399C90.464 40.8399 90.896 38.9839 90.896 36.8719Z" stroke="#f3f1ea" stroke-width="2"/>
<path d="M121.847 26.5999H115.751V49.9759H112.391V26.5999H108.743V23.7679H112.391V21.9439C112.391 19.0959 113.111 16.9999 114.551 15.6559C116.023 14.3119 118.391 13.6399 121.655 13.6399V16.5199C119.479 16.5199 117.943 16.9359 117.047 17.7679C116.183 18.5999 115.751 19.9919 115.751 21.9439V23.7679H121.847V26.5999Z" stroke="#f3f1ea" stroke-width="2"/>
<path d="M141.104 26.5999V42.8719C141.104 44.4719 141.408 45.5759 142.016 46.1839C142.624 46.7919 143.696 47.0959 145.232 47.0959H148.304V49.9759H144.704C142.336 49.9759 140.576 49.4319 139.424 48.3439C138.272 47.2239 137.696 45.3999 137.696 42.8719V26.5999H134.048V23.7679H137.696V17.1919H141.104V23.7679H148.304V26.5999H141.104Z" stroke="#f3f1ea" stroke-width="2"/>
<path d="M187.157 35.5279C187.157 36.6799 187.125 37.5599 187.061 38.1679H165.317C165.413 40.1519 165.893 41.8479 166.757 43.2559C167.621 44.6639 168.757 45.7359 170.165 46.4719C171.573 47.1759 173.109 47.5279 174.773 47.5279C176.949 47.5279 178.773 46.9999 180.245 45.9439C181.749 44.8879 182.741 43.4639 183.221 41.6719H186.773C186.133 44.2319 184.757 46.3279 182.645 47.9599C180.565 49.5599 177.941 50.3599 174.773 50.3599C172.309 50.3599 170.101 49.8159 168.149 48.7279C166.197 47.6079 164.661 46.0399 163.541 44.0239C162.453 41.9759 161.909 39.5919 161.909 36.8719C161.909 34.1519 162.453 31.7679 163.541 29.7199C164.629 27.6719 166.149 26.1039 168.101 25.0159C170.053 23.9279 172.277 23.3839 174.773 23.3839C177.269 23.3839 179.445 23.9279 181.301 25.0159C183.189 26.1039 184.629 27.5759 185.621 29.4319C186.645 31.2559 187.157 33.2879 187.157 35.5279ZM183.749 35.4319C183.781 33.4799 183.381 31.8159 182.549 30.4399C181.749 29.0639 180.645 28.0239 179.237 27.3199C177.829 26.6159 176.293 26.2639 174.629 26.2639C172.133 26.2639 170.005 27.0639 168.245 28.6639C166.485 30.2639 165.509 32.5199 165.317 35.4319H183.749Z" stroke="#f3f1ea" stroke-width="2"/>
<path d="M206.265 28.4239C207.001 26.7919 208.121 25.5279 209.625 24.6319C211.161 23.7359 213.033 23.2879 215.241 23.2879V26.7919H214.329C211.897 26.7919 209.945 27.4479 208.473 28.7599C207.001 30.0719 206.265 32.2639 206.265 35.3359V49.9759H202.905V23.7679H206.265V28.4239Z" stroke="#f3f1ea" stroke-width="2"/>
<path d="M241.367 50.3599C238.903 50.3599 236.679 49.8159 234.695 48.7279C232.743 47.6079 231.191 46.0399 230.039 44.0239C228.919 41.9759 228.359 39.5919 228.359 36.8719C228.359 34.1519 228.935 31.7839 230.087 29.7679C231.239 27.7199 232.807 26.1519 234.791 25.0639C236.775 23.9439 238.999 23.3839 241.463 23.3839C243.927 23.3839 246.151 23.9439 248.135 25.0639C250.151 26.1519 251.719 27.7199 252.839 29.7679C253.991 31.7839 254.567 34.1519 254.567 36.8719C254.567 39.5599 253.991 41.9279 252.839 43.9759C251.687 46.0239 250.103 47.6079 248.087 48.7279C246.071 49.8159 243.831 50.3599 241.367 50.3599ZM241.367 47.4319C243.095 47.4319 244.695 47.0479 246.167 46.2799C247.639 45.4799 248.823 44.2959 249.719 42.7279C250.647 41.1279 251.111 39.1759 251.111 36.8719C251.111 34.5679 250.663 32.6319 249.767 31.0639C248.871 29.4639 247.687 28.2799 246.215 27.5119C244.743 26.7119 243.143 26.3119 241.415 26.3119C239.687 26.3119 238.087 26.7119 236.615 27.5119C235.143 28.2799 233.959 29.4639 233.063 31.0639C232.199 32.6319 231.767 34.5679 231.767 36.8719C231.767 39.1759 232.199 41.1279 233.063 42.7279C233.959 44.2959 235.127 45.4799 236.567 46.2799C238.039 47.0479 239.639 47.4319 241.367 47.4319Z" stroke="#f3f1ea" stroke-width="2"/>
<path d="M280.612 26.5999H274.516V49.9759H271.156V26.5999H267.508V23.7679H271.156V21.9439C271.156 19.0959 271.876 16.9999 273.316 15.6559C274.788 14.3119 277.156 13.6399 280.42 13.6399V16.5199C278.244 16.5199 276.708 16.9359 275.812 17.7679C274.948 18.5999 274.516 19.9919 274.516 21.9439V23.7679H280.612V26.5999Z" stroke="#f3f1ea" stroke-width="2"/>
<path d="M305.822 26.5999H299.726V49.9759H296.366V26.5999H292.718V23.7679H296.366V21.9439C296.366 19.0959 297.086 16.9999 298.526 15.6559C299.998 14.3119 302.366 13.6399 305.63 13.6399V16.5199C303.454 16.5199 301.918 16.9359 301.022 17.7679C300.158 18.5999 299.726 19.9919 299.726 21.9439V23.7679H305.822V26.5999Z" stroke="#f3f1ea" stroke-width="2"/>
<path d="M322.391 18.8239C321.719 18.8239 321.143 18.5839 320.663 18.1039C320.183 17.6239 319.943 17.0319 319.943 16.3279C319.943 15.6239 320.183 15.0479 320.663 14.5999C321.143 14.1199 321.719 13.8799 322.391 13.8799C323.063 13.8799 323.639 14.1199 324.119 14.5999C324.599 15.0479 324.839 15.6239 324.839 16.3279C324.839 17.0319 324.599 17.6239 324.119 18.1039C323.639 18.5839 323.063 18.8239 322.391 18.8239ZM324.071 23.7679V49.9759H320.711V23.7679H324.071Z" stroke="#f3f1ea" stroke-width="2"/>
<path d="M339.744 36.8719C339.744 34.1519 340.288 31.7839 341.376 29.7679C342.464 27.7199 343.968 26.1519 345.888 25.0639C347.808 23.9439 350 23.3839 352.464 23.3839C355.696 23.3839 358.352 24.1839 360.432 25.7839C362.544 27.3839 363.904 29.5599 364.512 32.3119H360.912C360.464 30.4239 359.488 28.9519 357.984 27.8959C356.512 26.8079 354.672 26.2639 352.464 26.2639C350.704 26.2639 349.12 26.6639 347.712 27.4639C346.304 28.2639 345.184 29.4639 344.352 31.0639C343.552 32.6319 343.152 34.5679 343.152 36.8719C343.152 39.1759 343.552 41.1279 344.352 42.7279C345.184 44.3279 346.304 45.5279 347.712 46.3279C349.12 47.1279 350.704 47.5279 352.464 47.5279C354.672 47.5279 356.512 46.9999 357.984 45.9439C359.488 44.8559 360.464 43.3519 360.912 41.4319H364.512C363.904 44.1199 362.544 46.2799 360.432 47.9119C358.32 49.5439 355.664 50.3599 352.464 50.3599C350 50.3599 347.808 49.8159 345.888 48.7279C343.968 47.6079 342.464 46.0399 341.376 44.0239C340.288 41.9759 339.744 39.5919 339.744 36.8719Z" stroke="#f3f1ea" stroke-width="2"/>
<path d="M404.029 35.5279C404.029 36.6799 403.997 37.5599 403.933 38.1679H382.189C382.285 40.1519 382.765 41.8479 383.629 43.2559C384.493 44.6639 385.629 45.7359 387.037 46.4719C388.445 47.1759 389.981 47.5279 391.645 47.5279C393.821 47.5279 395.645 46.9999 397.117 45.9439C398.621 44.8879 399.613 43.4639 400.093 41.6719H403.645C403.005 44.2319 401.629 46.3279 399.517 47.9599C397.437 49.5599 394.813 50.3599 391.645 50.3599C389.181 50.3599 386.973 49.8159 385.021 48.7279C383.069 47.6079 381.533 46.0399 380.413 44.0239C379.325 41.9759 378.781 39.5919 378.781 36.8719C378.781 34.1519 379.325 31.7679 380.413 29.7199C381.501 27.6719 383.021 26.1039 384.973 25.0159C386.925 23.9279 389.149 23.3839 391.645 23.3839C394.141 23.3839 396.317 23.9279 398.173 25.0159C400.061 26.1039 401.501 27.5759 402.493 29.4319C403.517 31.2559 404.029 33.2879 404.029 35.5279ZM400.621 35.4319C400.653 33.4799 400.253 31.8159 399.421 30.4399C398.621 29.0639 397.517 28.0239 396.109 27.3199C394.701 26.6159 393.165 26.2639 391.501 26.2639C389.005 26.2639 386.877 27.0639 385.117 28.6639C383.357 30.2639 382.381 32.5199 382.189 35.4319H400.621Z" stroke="#f3f1ea" stroke-width="2"/>
</svg>
